<svg width="512" height="512" viewBox="0 0 512 512" fill="none" xmlns="http://www.w3.org/2000/svg">
  <rect width="512" height="512" fill="#fbf7f1"/>
  <circle cx="256" cy="256" r="239" fill="#fbf7f1" stroke="#a91532" stroke-width="10"/>
  <text x="256" y="186" text-anchor="middle" fill="#a91532" font-family="Georgia, 'Times New Roman', serif" font-size="82" font-weight="500">Maison</text>
  <text x="256" y="276" text-anchor="middle" fill="#a91532" font-family="Georgia, 'Times New Roman', serif" font-size="90" font-style="italic" font-weight="700">Cerisette</text>
  <path d="M253 331 C236 370 221 404 203 436" stroke="#a91532" stroke-width="8" stroke-linecap="round"/>
  <path d="M267 331 C282 370 300 404 318 436" stroke="#a91532" stroke-width="8" stroke-linecap="round"/>
  <path d="M258 332 C241 319 224 315 207 318 C218 337 240 339 258 332Z" fill="#5e8a45"/>
  <path d="M260 332 C278 319 295 316 313 318 C302 337 278 340 260 332Z" fill="#5e8a45"/>
  <circle cx="199" cy="434" r="31" fill="#a91532"/>
  <circle cx="318" cy="434" r="31" fill="#a91532"/>
  <circle cx="188" cy="424" r="10" fill="#fbf7f1"/>
</svg>
